<svg width="134" height="40" viewBox="0 0 134 40" fill="none" xmlns="http://www.w3.org/2000/svg">
<path d="M39.7234 14.1148C38.9867 10.1439 36.949 6.56404 33.9595 3.98881C30.9701 1.41359 27.2151 0.00340621 23.3383 0V3.47826C26.4397 3.4826 29.4433 4.61131 31.835 6.67123C34.2267 8.73114 35.8579 11.5942 36.4494 14.7704L36.8811 17.1113L39.1299 17.5374C41.3817 17.9626 43.3999 19.2507 44.788 21.1487C46.1762 23.0467 46.8341 25.4176 46.6326 27.7957C46.431 30.1738 45.3847 32.3875 43.6989 34.002C42.0131 35.6165 39.8097 36.5152 37.5212 36.5217H23.3383V40H37.5212C40.6421 39.9929 43.6476 38.7687 45.9475 36.5679C48.2474 34.3671 49.6754 31.3487 49.9511 28.1056C50.2268 24.8625 49.3302 21.6291 47.4375 19.0403C45.5447 16.4516 42.7926 14.6948 39.7217 14.1148H39.7234ZM10.0021 33.0435H20.0042V36.5217H10.0021V33.0435ZM3.33404 33.0435H6.66807V36.5217H3.33404V33.0435ZM6.66807 26.087H20.0042V29.5652H6.66807V26.087ZM0 26.087H3.33404V29.5652H0V26.087ZM10.0021 19.1304H20.0042V22.6087H10.0021V19.1304ZM3.33404 19.1304H6.66807V22.6087H3.33404V19.1304ZM13.3361 12.1739H20.0042V15.6522H13.3361V12.1739ZM6.66807 12.1739H10.0021V15.6522H6.66807V12.1739ZM16.6702 5.21739H20.0042V8.69565H16.6702V5.21739Z" fill="#FF6700"/>
<path d="M40.0083 23.4401C40.9612 22.8769 42.654 22.122 43.1608 23.0327C43.6677 23.9434 43.0189 26.1242 42.3702 27.8258" stroke="#003777" stroke-linecap="round" stroke-linejoin="round"/>
<path d="M24.3841 26.3296C23.3659 25.9091 21.7401 25.0078 22.1017 24.0246C22.4633 23.0415 24.4979 22.1998 26.1749 21.6589" stroke="#003777" stroke-linecap="round" stroke-linejoin="round"/>
<path d="M25.0051 24.3477C26.3029 25.7234 30.1264 27.8248 34.1938 27.8248C36.9498 27.8662 39.6198 26.7867 41.6753 24.8" stroke="#003777" stroke-linecap="round" stroke-linejoin="round"/>
<path d="M57.32 15.13C56.9 14.9 56.47 14.71 56.03 14.56C55.6 14.41 55.195 14.335 54.815 14.335C54.345 14.335 53.975 14.43 53.705 14.62C53.435 14.81 53.3 15.095 53.3 15.475C53.3 15.735 53.4 15.97 53.6 16.18C53.81 16.38 54.075 16.56 54.395 16.72C54.725 16.88 55.065 17.025 55.415 17.155C55.735 17.275 56.05 17.42 56.36 17.59C56.68 17.75 56.965 17.955 57.215 18.205C57.465 18.445 57.665 18.75 57.815 19.12C57.965 19.48 58.04 19.925 58.04 20.455C58.04 21.015 57.895 21.535 57.605 22.015C57.315 22.495 56.89 22.885 56.33 23.185C55.77 23.475 55.08 23.62 54.26 23.62C53.84 23.62 53.41 23.58 52.97 23.5C52.54 23.41 52.115 23.28 51.695 23.11C51.275 22.93 50.87 22.705 50.48 22.435L51.44 20.74C51.7 20.93 51.98 21.1 52.28 21.25C52.59 21.39 52.9 21.5 53.21 21.58C53.52 21.66 53.805 21.7 54.065 21.7C54.325 21.7 54.585 21.665 54.845 21.595C55.115 21.515 55.335 21.385 55.505 21.205C55.685 21.025 55.775 20.775 55.775 20.455C55.775 20.235 55.7 20.035 55.55 19.855C55.41 19.675 55.215 19.51 54.965 19.36C54.725 19.21 54.46 19.08 54.17 18.97C53.83 18.84 53.48 18.69 53.12 18.52C52.76 18.35 52.42 18.145 52.1 17.905C51.79 17.655 51.535 17.35 51.335 16.99C51.145 16.62 51.05 16.17 51.05 15.64C51.05 15 51.19 14.445 51.47 13.975C51.76 13.505 52.165 13.135 52.685 12.865C53.205 12.585 53.805 12.43 54.485 12.4C55.375 12.4 56.095 12.505 56.645 12.715C57.205 12.925 57.705 13.175 58.145 13.465L57.32 15.13ZM62.3751 16.39L62.3151 16.945L62.6451 16.525L66.2451 12.46H69.0651L64.5051 17.41L69.0801 23.5H66.3201L62.9151 18.79L62.3751 19.33V23.5H60.1701V12.46H62.3751V16.39ZM73.5966 20.065L69.5316 12.46H72.2166L75.0666 18.19L74.4216 18.235L77.2266 12.46H79.9116L75.7716 20.065V23.5H73.5966V20.065ZM80.8068 12.46H88.2468V14.56H85.5618V23.5H83.3868V14.56H80.8068V12.46ZM88.2073 23.5L93.1873 12.025H93.3073L98.2873 23.5H95.7673L92.5873 15.43L94.1623 14.35L90.3523 23.5H88.2073ZM91.6123 19.51H94.9273L95.6923 21.34H90.9373L91.6123 19.51ZM99.8967 12.46H102.072V23.5H99.8967V12.46ZM104.921 12.46H107.096V21.4H112.286V23.5H104.921V12.46ZM114.53 12.46H122.06V14.56H116.705V16.915H121.445V19.015H116.705V21.4H122.27V23.5H114.53V12.46ZM127.866 12.46C128.556 12.46 129.171 12.55 129.711 12.73C130.251 12.9 130.701 13.15 131.061 13.48C131.431 13.8 131.711 14.19 131.901 14.65C132.091 15.1 132.186 15.61 132.186 16.18C132.186 16.63 132.116 17.08 131.976 17.53C131.846 17.98 131.626 18.39 131.316 18.76C131.016 19.13 130.616 19.43 130.116 19.66C129.616 19.88 128.996 19.99 128.256 19.99H126.696V23.5H124.521V12.46H127.866ZM128.241 17.89C128.571 17.89 128.846 17.835 129.066 17.725C129.286 17.615 129.456 17.475 129.576 17.305C129.706 17.135 129.796 16.96 129.846 16.78C129.906 16.59 129.936 16.415 129.936 16.255C129.936 16.135 129.916 15.985 129.876 15.805C129.846 15.615 129.776 15.425 129.666 15.235C129.556 15.045 129.386 14.885 129.156 14.755C128.936 14.625 128.636 14.56 128.256 14.56H126.696V17.89H128.241ZM130.281 19.24L133.011 23.5H130.476L127.686 19.3L130.281 19.24Z" fill="#003777"/>
</svg>
