<svg width="43" height="13" viewBox="0 0 43 13" fill="none" xmlns="http://www.w3.org/2000/svg">
<path d="M0.56 1.155H7.61V2.55H2.015V5.85H7.01V7.245H2.015V10.605H7.82V12H0.56V1.155ZM11.2452 5.79L11.3652 7.185L11.3052 7.065C11.5352 6.595 11.8602 6.225 12.2802 5.955C12.7102 5.685 13.2002 5.55 13.7502 5.55C14.1002 5.55 14.4102 5.605 14.6802 5.715C14.9502 5.825 15.1702 5.985 15.3402 6.195C15.5202 6.395 15.6352 6.645 15.6852 6.945L15.6102 6.99C15.8502 6.54 16.1802 6.19 16.6002 5.94C17.0302 5.68 17.4802 5.55 17.9502 5.55C18.5602 5.55 19.0402 5.725 19.3902 6.075C19.7502 6.415 19.9352 6.86 19.9452 7.41V12H18.5502V7.905C18.5402 7.585 18.4602 7.32 18.3102 7.11C18.1702 6.89 17.9202 6.77 17.5602 6.75C17.2002 6.75 16.8752 6.86 16.5852 7.08C16.3052 7.3 16.0852 7.585 15.9252 7.935C15.7652 8.275 15.6802 8.645 15.6702 9.045V12H14.2752V7.905C14.2652 7.585 14.1802 7.32 14.0202 7.11C13.8702 6.89 13.6152 6.77 13.2552 6.75C12.8852 6.75 12.5602 6.86 12.2802 7.08C12.0002 7.3 11.7802 7.585 11.6202 7.935C11.4702 8.285 11.3952 8.66 11.3952 9.06V12H10.0002V5.79H11.2452ZM24.9581 12.15C24.3781 12.15 23.8481 12.025 23.3681 11.775C22.8981 11.525 22.5231 11.16 22.2431 10.68C21.9731 10.19 21.8381 9.595 21.8381 8.895C21.8381 8.205 21.9831 7.61 22.2731 7.11C22.5631 6.6 22.9481 6.21 23.4281 5.94C23.9181 5.67 24.4531 5.535 25.0331 5.535C25.6131 5.535 26.1031 5.67 26.5031 5.94C26.9031 6.2 27.2081 6.51 27.4181 6.87L27.3281 7.11L27.4631 5.79H28.7531V12H27.3581V10.38L27.5081 10.74C27.4681 10.84 27.3781 10.97 27.2381 11.13C27.1081 11.28 26.9281 11.435 26.6981 11.595C26.4781 11.755 26.2231 11.89 25.9331 12C25.6431 12.1 25.3181 12.15 24.9581 12.15ZM25.3331 10.995C25.6831 10.995 25.9981 10.93 26.2781 10.8C26.5581 10.67 26.7881 10.49 26.9681 10.26C27.1581 10.02 27.2881 9.735 27.3581 9.405V8.19C27.2781 7.89 27.1381 7.63 26.9381 7.41C26.7381 7.18 26.4981 7.005 26.2181 6.885C25.9381 6.755 25.6281 6.69 25.2881 6.69C24.9181 6.69 24.5781 6.78 24.2681 6.96C23.9581 7.14 23.7081 7.39 23.5181 7.71C23.3381 8.03 23.2481 8.405 23.2481 8.835C23.2481 9.235 23.3431 9.6 23.5331 9.93C23.7231 10.26 23.9781 10.52 24.2981 10.71C24.6181 10.9 24.9631 10.995 25.3331 10.995ZM31.1671 5.79H32.5621V12H31.1671V5.79ZM31.0621 3.54C31.0621 3.32 31.1471 3.135 31.3171 2.985C31.4971 2.835 31.6921 2.76 31.9021 2.76C32.1121 2.76 32.2971 2.835 32.4571 2.985C32.6271 3.135 32.7121 3.32 32.7121 3.54C32.7121 3.77 32.6271 3.96 32.4571 4.11C32.2971 4.25 32.1121 4.32 31.9021 4.32C31.6921 4.32 31.4971 4.245 31.3171 4.095C31.1471 3.945 31.0621 3.76 31.0621 3.54ZM34.9757 0.389999H36.3707V12H34.9757V0.389999Z" fill="#9799AB"/>
<path d="M39.6543 4.125C39.4643 4.235 39.2693 4.35 39.0693 4.47C38.8693 4.58 38.6693 4.69 38.4693 4.8C38.3993 4.67 38.3243 4.54 38.2443 4.41C38.1743 4.28 38.0993 4.155 38.0193 4.035C38.2293 3.925 38.4293 3.815 38.6193 3.705C38.8193 3.585 39.0193 3.47 39.2193 3.36C39.0293 3.24 38.8343 3.12 38.6343 3C38.4343 2.88 38.2343 2.76 38.0343 2.64C38.1043 2.52 38.1693 2.405 38.2293 2.295C38.2993 2.175 38.3693 2.055 38.4393 1.935C38.6393 2.045 38.8393 2.16 39.0393 2.28C39.2493 2.4 39.4543 2.52 39.6543 2.64V1.2H40.5543C40.5443 1.44 40.5393 1.68 40.5393 1.92C40.5393 2.16 40.5343 2.4 40.5243 2.64C40.7343 2.52 40.9443 2.405 41.1543 2.295C41.3643 2.175 41.5693 2.06 41.7693 1.95C41.8393 2.07 41.9043 2.19 41.9643 2.31C42.0343 2.42 42.1043 2.535 42.1743 2.655C41.9743 2.775 41.7693 2.895 41.5593 3.015C41.3593 3.135 41.1543 3.255 40.9443 3.375C41.1443 3.495 41.3443 3.615 41.5443 3.735C41.7443 3.845 41.9493 3.96 42.1593 4.08C42.0893 4.2 42.0143 4.325 41.9343 4.455C41.8643 4.585 41.7893 4.715 41.7093 4.845C41.5093 4.725 41.3093 4.605 41.1093 4.485C40.9093 4.365 40.7093 4.245 40.5093 4.125C40.5093 4.355 40.5043 4.585 40.4943 4.815C40.4943 5.035 40.4943 5.26 40.4943 5.49H39.6543V4.125Z" fill="#FF0000"/>
</svg>
