<svg width="52" height="52" viewBox="0 0 52 52" fill="none" xmlns="http://www.w3.org/2000/svg">
<rect x="0.5" y="0.5" width="51" height="51" rx="10" fill="#003777"/>
<path d="M18.8798 22.5243L24.6811 13.5L30.4825 22.5243" stroke="#FF6700" stroke-width="3"/>
<path d="M11.5249 23.7302C11.0084 21.823 12.4447 19.9459 14.4206 19.9459H35.142C37.1058 19.9459 38.5401 21.8015 38.0452 23.702L35.579 33.1722C35.2348 34.4938 34.0415 35.4162 32.6758 35.4162H16.9854C15.6306 35.4162 14.4439 34.5081 14.0898 33.2004L11.5249 23.7302Z" fill="#FF6700"/>
<path d="M24.0365 31.7098L26.8421 34.4608C29.1631 36.7367 32.8483 36.8319 35.2838 34.679L41.924 28.8091" stroke="white" stroke-width="10"/>
<path d="M25.3257 32.6095L28.9495 36.2333C30.1195 37.4033 31.9987 37.4586 33.2353 36.3593L40.0976 30.2595" stroke="#FF6700" stroke-width="4"/>
</svg>
