<svg width="138" height="40" viewBox="0 0 138 40" fill="none" xmlns="http://www.w3.org/2000/svg">
<path d="M39.7234 14.1148C38.9867 10.1439 36.949 6.56404 33.9595 3.98881C30.9701 1.41359 27.2151 0.00340622 23.3383 0V3.47826C26.4397 3.4826 29.4433 4.61131 31.835 6.67123C34.2267 8.73114 35.8579 11.5942 36.4494 14.7704L36.8811 17.1113L39.1299 17.5374C41.3817 17.9626 43.3999 19.2507 44.788 21.1487C46.1762 23.0467 46.8341 25.4176 46.6326 27.7957C46.431 30.1738 45.3847 32.3875 43.6989 34.002C42.0131 35.6165 39.8097 36.5152 37.5212 36.5217H23.3383V40H37.5212C40.6421 39.9929 43.6476 38.7687 45.9475 36.5679C48.2474 34.3671 49.6754 31.3487 49.9511 28.1056C50.2268 24.8625 49.3302 21.6291 47.4375 19.0403C45.5447 16.4516 42.7926 14.6948 39.7217 14.1148H39.7234ZM10.0021 33.0435H20.0042V36.5217H10.0021V33.0435ZM3.33404 33.0435H6.66807V36.5217H3.33404V33.0435ZM6.66807 26.087H20.0042V29.5652H6.66807V26.087ZM0 26.087H3.33404V29.5652H0V26.087ZM10.0021 19.1304H20.0042V22.6087H10.0021V19.1304ZM3.33404 19.1304H6.66807V22.6087H3.33404V19.1304ZM13.3361 12.1739H20.0042V15.6522H13.3361V12.1739ZM6.66807 12.1739H10.0021V15.6522H6.66807V12.1739ZM16.6702 5.21739H20.0042V8.69565H16.6702V5.21739Z" fill="#FF6700"/>
<path d="M40.0084 23.4401C40.9613 22.8769 42.6541 22.122 43.1609 23.0327C43.6678 23.9434 43.019 26.1242 42.3703 27.8258" stroke="white" stroke-linecap="round" stroke-linejoin="round"/>
<path d="M24.3842 26.3296C23.366 25.9091 21.7402 25.0078 22.1018 24.0246C22.4634 23.0415 24.498 22.1998 26.175 21.6589" stroke="white" stroke-linecap="round" stroke-linejoin="round"/>
<path d="M25.0053 24.3477C26.303 25.7234 30.1265 27.8248 34.1939 27.8248C36.95 27.8662 39.62 26.7867 41.6755 24.8" stroke="white" stroke-linecap="round" stroke-linejoin="round"/>
<path d="M61.32 15.13C60.9 14.9 60.47 14.71 60.03 14.56C59.6 14.41 59.195 14.335 58.815 14.335C58.345 14.335 57.975 14.43 57.705 14.62C57.435 14.81 57.3 15.095 57.3 15.475C57.3 15.735 57.4 15.97 57.6 16.18C57.81 16.38 58.075 16.56 58.395 16.72C58.725 16.88 59.065 17.025 59.415 17.155C59.735 17.275 60.05 17.42 60.36 17.59C60.68 17.75 60.965 17.955 61.215 18.205C61.465 18.445 61.665 18.75 61.815 19.12C61.965 19.48 62.04 19.925 62.04 20.455C62.04 21.015 61.895 21.535 61.605 22.015C61.315 22.495 60.89 22.885 60.33 23.185C59.77 23.475 59.08 23.62 58.26 23.62C57.84 23.62 57.41 23.58 56.97 23.5C56.54 23.41 56.115 23.28 55.695 23.11C55.275 22.93 54.87 22.705 54.48 22.435L55.44 20.74C55.7 20.93 55.98 21.1 56.28 21.25C56.59 21.39 56.9 21.5 57.21 21.58C57.52 21.66 57.805 21.7 58.065 21.7C58.325 21.7 58.585 21.665 58.845 21.595C59.115 21.515 59.335 21.385 59.505 21.205C59.685 21.025 59.775 20.775 59.775 20.455C59.775 20.235 59.7 20.035 59.55 19.855C59.41 19.675 59.215 19.51 58.965 19.36C58.725 19.21 58.46 19.08 58.17 18.97C57.83 18.84 57.48 18.69 57.12 18.52C56.76 18.35 56.42 18.145 56.1 17.905C55.79 17.655 55.535 17.35 55.335 16.99C55.145 16.62 55.05 16.17 55.05 15.64C55.05 15 55.19 14.445 55.47 13.975C55.76 13.505 56.165 13.135 56.685 12.865C57.205 12.585 57.805 12.43 58.485 12.4C59.375 12.4 60.095 12.505 60.645 12.715C61.205 12.925 61.705 13.175 62.145 13.465L61.32 15.13ZM66.3751 16.39L66.3151 16.945L66.6451 16.525L70.2451 12.46H73.0651L68.5051 17.41L73.0801 23.5H70.3201L66.9151 18.79L66.3751 19.33V23.5H64.1701V12.46H66.3751V16.39ZM77.5966 20.065L73.5316 12.46H76.2166L79.0666 18.19L78.4216 18.235L81.2266 12.46H83.9116L79.7716 20.065V23.5H77.5966V20.065ZM84.8068 12.46H92.2468V14.56H89.5618V23.5H87.3868V14.56H84.8068V12.46ZM92.2073 23.5L97.1873 12.025H97.3073L102.287 23.5H99.7673L96.5873 15.43L98.1623 14.35L94.3523 23.5H92.2073ZM95.6123 19.51H98.9273L99.6923 21.34H94.9373L95.6123 19.51ZM103.897 12.46H106.072V23.5H103.897V12.46ZM108.921 12.46H111.096V21.4H116.286V23.5H108.921V12.46ZM118.53 12.46H126.06V14.56H120.705V16.915H125.445V19.015H120.705V21.4H126.27V23.5H118.53V12.46ZM131.866 12.46C132.556 12.46 133.171 12.55 133.711 12.73C134.251 12.9 134.701 13.15 135.061 13.48C135.431 13.8 135.711 14.19 135.901 14.65C136.091 15.1 136.186 15.61 136.186 16.18C136.186 16.63 136.116 17.08 135.976 17.53C135.846 17.98 135.626 18.39 135.316 18.76C135.016 19.13 134.616 19.43 134.116 19.66C133.616 19.88 132.996 19.99 132.256 19.99H130.696V23.5H128.521V12.46H131.866ZM132.241 17.89C132.571 17.89 132.846 17.835 133.066 17.725C133.286 17.615 133.456 17.475 133.576 17.305C133.706 17.135 133.796 16.96 133.846 16.78C133.906 16.59 133.936 16.415 133.936 16.255C133.936 16.135 133.916 15.985 133.876 15.805C133.846 15.615 133.776 15.425 133.666 15.235C133.556 15.045 133.386 14.885 133.156 14.755C132.936 14.625 132.636 14.56 132.256 14.56H130.696V17.89H132.241ZM134.281 19.24L137.011 23.5H134.476L131.686 19.3L134.281 19.24Z" fill="white"/>
</svg>
