<svg width="51" height="52" viewBox="0 0 51 52" fill="none" xmlns="http://www.w3.org/2000/svg">
<rect y="0.5" width="51" height="51" rx="10" fill="#003777"/>
<path d="M27.3334 7.34375V11.1313C34.575 12.05 40.1667 18.35 40.1667 26C40.1667 32.0187 36.6467 37.25 31.5134 39.65L27.3334 35.375V44.75H36.5L34.2634 42.4625C40.0017 39.2563 43.8334 33.05 43.8334 26C43.8334 16.2875 36.5917 8.28125 27.3334 7.34375ZM23.6667 7.25C20.0917 7.625 16.7 9.05 13.9134 11.3938L16.5167 14.0563C18.5977 12.4156 21.063 11.3618 23.6667 11V7.25ZM11.2 14.15C8.92669 17 7.53335 20.4688 7.16669 24.125H10.8334C11.1817 21.4625 12.2084 18.9312 13.8217 16.8125L11.2 14.15ZM14.5 18.5V22.25H20V24.125H18.1667C16.15 24.125 14.5 25.8125 14.5 27.875V33.5H23.6667V29.75H18.1667V27.875H20C22.035 27.875 23.6667 26.2062 23.6667 24.125V22.25C23.6667 21.2554 23.2804 20.3016 22.5927 19.5984C21.9051 18.8951 20.9725 18.5 20 18.5H14.5ZM25.5 18.5V27.875H31V33.5H34.6667V27.875H36.5V24.125H34.6667V18.5H31V24.125H29.1667V18.5H25.5ZM7.16669 27.875C7.53335 31.5312 8.94502 35 11.2367 37.85L13.84 35.1875C12.2304 33.0605 11.1937 30.5393 10.8334 27.875H7.16669ZM16.535 37.9438L13.9134 40.6063C16.6989 42.9322 20.0896 44.3728 23.6667 44.75V41C21.0664 40.6464 18.605 39.5916 16.535 37.9438Z" fill="#FF6700"/>
</svg>
