<svg width="46" height="13" viewBox="0 0 46 13" fill="none" xmlns="http://www.w3.org/2000/svg">
<path d="M9.95 12.345L1.565 3.84L1.985 3.945L2.015 12H0.56V0.824999H0.635L8.93 9.36L8.585 9.285L8.555 1.155H9.995V12.345H9.95ZM15.3487 12.15C14.7687 12.15 14.2387 12.025 13.7587 11.775C13.2887 11.525 12.9137 11.16 12.6337 10.68C12.3637 10.19 12.2287 9.595 12.2287 8.895C12.2287 8.205 12.3737 7.61 12.6637 7.11C12.9537 6.6 13.3387 6.21 13.8187 5.94C14.3087 5.67 14.8437 5.535 15.4237 5.535C16.0037 5.535 16.4937 5.67 16.8937 5.94C17.2937 6.2 17.5987 6.51 17.8087 6.87L17.7187 7.11L17.8537 5.79H19.1437V12H17.7487V10.38L17.8987 10.74C17.8587 10.84 17.7687 10.97 17.6287 11.13C17.4987 11.28 17.3187 11.435 17.0887 11.595C16.8687 11.755 16.6137 11.89 16.3237 12C16.0337 12.1 15.7087 12.15 15.3487 12.15ZM15.7237 10.995C16.0737 10.995 16.3887 10.93 16.6687 10.8C16.9487 10.67 17.1787 10.49 17.3587 10.26C17.5487 10.02 17.6787 9.735 17.7487 9.405V8.19C17.6687 7.89 17.5287 7.63 17.3287 7.41C17.1287 7.18 16.8887 7.005 16.6087 6.885C16.3287 6.755 16.0187 6.69 15.6787 6.69C15.3087 6.69 14.9687 6.78 14.6587 6.96C14.3487 7.14 14.0987 7.39 13.9087 7.71C13.7287 8.03 13.6387 8.405 13.6387 8.835C13.6387 9.235 13.7337 9.6 13.9237 9.93C14.1137 10.26 14.3687 10.52 14.6887 10.71C15.0087 10.9 15.3537 10.995 15.7237 10.995ZM22.8028 5.79L22.9228 7.185L22.8628 7.065C23.0928 6.595 23.4178 6.225 23.8378 5.955C24.2678 5.685 24.7578 5.55 25.3078 5.55C25.6578 5.55 25.9678 5.605 26.2378 5.715C26.5078 5.825 26.7278 5.985 26.8978 6.195C27.0778 6.395 27.1928 6.645 27.2428 6.945L27.1678 6.99C27.4078 6.54 27.7378 6.19 28.1578 5.94C28.5878 5.68 29.0378 5.55 29.5078 5.55C30.1178 5.55 30.5978 5.725 30.9478 6.075C31.3078 6.415 31.4928 6.86 31.5028 7.41V12H30.1078V7.905C30.0978 7.585 30.0178 7.32 29.8678 7.11C29.7278 6.89 29.4778 6.77 29.1178 6.75C28.7578 6.75 28.4328 6.86 28.1428 7.08C27.8628 7.3 27.6428 7.585 27.4828 7.935C27.3228 8.275 27.2378 8.645 27.2278 9.045V12H25.8328V7.905C25.8228 7.585 25.7378 7.32 25.5778 7.11C25.4278 6.89 25.1728 6.77 24.8128 6.75C24.4428 6.75 24.1178 6.86 23.8378 7.08C23.5578 7.3 23.3378 7.585 23.1778 7.935C23.0278 8.285 22.9528 8.66 22.9528 9.06V12H21.5578V5.79H22.8028ZM36.8157 12.15C36.1057 12.15 35.4957 12.01 34.9857 11.73C34.4757 11.44 34.0807 11.05 33.8007 10.56C33.5307 10.06 33.3957 9.49 33.3957 8.85C33.3957 8.24 33.5507 7.685 33.8607 7.185C34.1707 6.685 34.5857 6.285 35.1057 5.985C35.6257 5.685 36.2057 5.535 36.8457 5.535C37.6657 5.535 38.3457 5.775 38.8857 6.255C39.4257 6.735 39.7907 7.395 39.9807 8.235L34.8657 10.035L34.5357 9.21L38.7357 7.68L38.4357 7.875C38.3157 7.545 38.1157 7.26 37.8357 7.02C37.5557 6.77 37.1907 6.645 36.7407 6.645C36.3607 6.645 36.0207 6.74 35.7207 6.93C35.4207 7.11 35.1857 7.36 35.0157 7.68C34.8457 8 34.7607 8.365 34.7607 8.775C34.7607 9.205 34.8507 9.585 35.0307 9.915C35.2107 10.235 35.4557 10.49 35.7657 10.68C36.0857 10.86 36.4457 10.95 36.8457 10.95C37.1157 10.95 37.3757 10.9 37.6257 10.8C37.8857 10.7 38.1257 10.57 38.3457 10.41L38.9907 11.445C38.6807 11.655 38.3307 11.825 37.9407 11.955C37.5607 12.085 37.1857 12.15 36.8157 12.15Z" fill="#9799AB"/>
<path d="M42.5987 4.125C42.4087 4.235 42.2137 4.35 42.0137 4.47C41.8137 4.58 41.6137 4.69 41.4137 4.8C41.3437 4.67 41.2687 4.54 41.1887 4.41C41.1187 4.28 41.0437 4.155 40.9637 4.035C41.1737 3.925 41.3737 3.815 41.5637 3.705C41.7637 3.585 41.9637 3.47 42.1637 3.36C41.9737 3.24 41.7787 3.12 41.5787 3C41.3787 2.88 41.1787 2.76 40.9787 2.64C41.0487 2.52 41.1137 2.405 41.1737 2.295C41.2437 2.175 41.3137 2.055 41.3837 1.935C41.5837 2.045 41.7837 2.16 41.9837 2.28C42.1937 2.4 42.3987 2.52 42.5987 2.64V1.2H43.4987C43.4887 1.44 43.4837 1.68 43.4837 1.92C43.4837 2.16 43.4787 2.4 43.4687 2.64C43.6787 2.52 43.8887 2.405 44.0987 2.295C44.3087 2.175 44.5137 2.06 44.7137 1.95C44.7837 2.07 44.8487 2.19 44.9087 2.31C44.9787 2.42 45.0487 2.535 45.1187 2.655C44.9187 2.775 44.7137 2.895 44.5037 3.015C44.3037 3.135 44.0987 3.255 43.8887 3.375C44.0887 3.495 44.2887 3.615 44.4887 3.735C44.6887 3.845 44.8937 3.96 45.1037 4.08C45.0337 4.2 44.9587 4.325 44.8787 4.455C44.8087 4.585 44.7337 4.715 44.6537 4.845C44.4537 4.725 44.2537 4.605 44.0537 4.485C43.8537 4.365 43.6537 4.245 43.4537 4.125C43.4537 4.355 43.4487 4.585 43.4387 4.815C43.4387 5.035 43.4387 5.26 43.4387 5.49H42.5987V4.125Z" fill="#FF0000"/>
</svg>
