<svg width="51" height="52" viewBox="0 0 51 52" fill="none" xmlns="http://www.w3.org/2000/svg">
<rect y="0.5" width="51" height="51" rx="10" fill="#003777"/>
<path d="M10.0714 24.8285H25.5V27.1691H10.0714V24.8285ZM7.5 18.9769H20.3571V21.3175H7.5V18.9769Z" fill="#FF6700"/>
<path d="M43.3959 25.5377L39.5387 17.3455C39.4397 17.1349 39.275 16.9555 39.0649 16.8294C38.8549 16.7033 38.6088 16.6362 38.3572 16.6363H34.5V14.2957C34.5 13.9853 34.3646 13.6876 34.1234 13.4681C33.8823 13.2487 33.5553 13.1254 33.2143 13.1254H12.6429V15.466H31.9286V30.1604C31.3427 30.47 30.83 30.8822 30.42 31.3731C30.01 31.864 29.7108 32.424 29.5397 33.0206H21.4603C21.1474 31.9174 20.4031 30.956 19.3671 30.3165C18.3311 29.677 17.0745 29.4034 15.8327 29.547C14.591 29.6906 13.4494 30.2414 12.6219 31.0964C11.7944 31.9513 11.3379 33.0515 11.3379 34.1909C11.3379 35.3303 11.7944 36.4306 12.6219 37.2855C13.4494 38.1404 14.591 38.6913 15.8327 38.8349C17.0745 38.9784 18.3311 38.7048 19.3671 38.0654C20.4031 37.4259 21.1474 36.4644 21.4603 35.3612H29.5397C29.8194 36.3656 30.4591 37.2565 31.3574 37.8928C32.2558 38.5292 33.3617 38.8747 34.5 38.8747C35.6384 38.8747 36.7442 38.5292 37.6426 37.8928C38.541 37.2565 39.1806 36.3656 39.4603 35.3612H42.2143C42.5553 35.3612 42.8823 35.2379 43.1234 35.0185C43.3646 34.799 43.5 34.5013 43.5 34.1909V25.9988C43.5001 25.8402 43.4646 25.6833 43.3959 25.5377ZM16.5 36.5315C15.9914 36.5315 15.4943 36.3943 15.0714 36.1371C14.6485 35.8799 14.3189 35.5143 14.1243 35.0866C13.9297 34.659 13.8788 34.1883 13.978 33.7343C14.0772 33.2803 14.3221 32.8632 14.6817 32.5359C15.0414 32.2085 15.4995 31.9856 15.9984 31.8953C16.4972 31.805 17.0142 31.8513 17.4841 32.0285C17.9539 32.2056 18.3555 32.5056 18.6381 32.8906C18.9206 33.2755 19.0714 33.728 19.0714 34.1909C19.0708 34.8115 18.7996 35.4065 18.3175 35.8453C17.8354 36.2841 17.1818 36.5309 16.5 36.5315ZM34.5 18.9769H37.5086L40.2652 24.8285H34.5V18.9769ZM34.5 36.5315C33.9914 36.5315 33.4943 36.3943 33.0714 36.1371C32.6485 35.8799 32.3189 35.5143 32.1243 35.0866C31.9297 34.659 31.8788 34.1883 31.978 33.7343C32.0772 33.2803 32.3221 32.8632 32.6817 32.5359C33.0414 32.2085 33.4995 31.9856 33.9984 31.8953C34.4972 31.805 35.0142 31.8513 35.4841 32.0285C35.9539 32.2056 36.3555 32.5056 36.6381 32.8906C36.9206 33.2755 37.0714 33.728 37.0714 34.1909C37.0708 34.8115 36.7996 35.4065 36.3175 35.8453C35.8354 36.2841 35.1818 36.5309 34.5 36.5315ZM40.9286 33.0206H39.4603C39.1771 32.0182 38.5364 31.1296 37.6388 30.4942C36.7411 29.8588 35.6371 29.5126 34.5 29.5097V27.1691H40.9286V33.0206Z" fill="#FF6700"/>
</svg>
