<svg width="20" height="20" viewBox="0 0 20 20" fill="none" xmlns="http://www.w3.org/2000/svg">
<path d="M16.6667 6.66667H18.8889C19.1836 6.66667 19.4662 6.76701 19.6746 6.94561C19.8829 7.12422 20 7.36646 20 7.61905V19.0476C20 19.3002 19.8829 19.5424 19.6746 19.7211C19.4662 19.8997 19.1836 20 18.8889 20H1.11111C0.816426 20 0.533811 19.8997 0.325437 19.7211C0.117063 19.5424 0 19.3002 0 19.0476V7.61905C0 7.36646 0.117063 7.12422 0.325437 6.94561C0.533811 6.76701 0.816426 6.66667 1.11111 6.66667H3.33333V5.71429C3.33333 4.19876 4.03571 2.74531 5.28596 1.67368C6.5362 0.602039 8.23189 0 10 0C11.7681 0 13.4638 0.602039 14.714 1.67368C15.9643 2.74531 16.6667 4.19876 16.6667 5.71429V6.66667ZM14.4444 6.66667V5.71429C14.4444 4.70394 13.9762 3.73497 13.1427 3.02055C12.3092 2.30612 11.1787 1.90476 10 1.90476C8.82126 1.90476 7.6908 2.30612 6.8573 3.02055C6.02381 3.73497 5.55556 4.70394 5.55556 5.71429V6.66667H14.4444ZM8.88889 12.381V14.2857H11.1111V12.381H8.88889ZM4.44444 12.381V14.2857H6.66667V12.381H4.44444ZM13.3333 12.381V14.2857H15.5556V12.381H13.3333Z" fill="#21005D"/>
</svg>
