<svg width="51" height="52" viewBox="0 0 51 52" fill="none" xmlns="http://www.w3.org/2000/svg">
<rect y="0.5" width="51" height="51" rx="10" fill="#003777"/>
<path d="M33.8429 26.1035C36.0282 26.1035 38.1239 26.9716 39.6691 28.5168C41.2143 30.0619 42.0824 32.1577 42.0824 34.3429C42.0824 36.5281 41.2143 38.6239 39.6691 40.1691C38.1239 41.7143 36.0282 42.5823 33.8429 42.5823C31.6577 42.5823 29.562 41.7143 28.0168 40.1691C26.4716 38.6239 25.6035 36.5281 25.6035 34.3429C25.6035 32.1577 26.4716 30.0619 28.0168 28.5168C29.562 26.9716 31.6577 26.1035 33.8429 26.1035ZM33.8429 29.0996L33.7081 29.1101C33.5584 29.1375 33.4207 29.2097 33.3131 29.3173C33.2055 29.4249 33.1332 29.5627 33.1059 29.7124L33.0939 29.8487V33.5939H29.3457L29.2109 33.6059C29.0612 33.6332 28.9234 33.7055 28.8158 33.813C28.7083 33.9206 28.636 34.0584 28.6087 34.2081L28.5967 34.3429L28.6087 34.4777C28.636 34.6274 28.7083 34.7652 28.8158 34.8728C28.9234 34.9804 29.0612 35.0526 29.2109 35.08L29.3457 35.0919H33.0939V38.8416L33.1059 38.9765C33.1332 39.1261 33.2055 39.2639 33.3131 39.3715C33.4207 39.4791 33.5584 39.5513 33.7081 39.5787L33.8429 39.5907L33.9778 39.5787C34.1274 39.5513 34.2652 39.4791 34.3728 39.3715C34.4804 39.2639 34.5527 39.1261 34.58 38.9765L34.592 38.8416V35.0919L38.3432 35.0934L38.478 35.0815C38.6277 35.0541 38.7654 34.9818 38.873 34.8743C38.9806 34.7667 39.0529 34.6289 39.0802 34.4792L39.0922 34.3444L39.0802 34.2096C39.0528 34.0597 38.9803 33.9218 38.8724 33.8142C38.7645 33.7066 38.6264 33.6344 38.4765 33.6074L38.3417 33.5954H34.592V29.8502L34.58 29.7153C34.5529 29.5654 34.4808 29.4273 34.3732 29.3194C34.2656 29.2115 34.1276 29.1391 33.9778 29.1116L33.8429 29.0996ZM28.9802 23.1073C30.2311 23.1073 31.3217 23.7875 31.9029 24.8002C30.3539 25.1158 28.9051 25.8037 27.6814 26.8045C26.4577 27.8053 25.4959 29.0889 24.8792 30.5444C24.2625 32 24.0093 33.5838 24.1415 35.159C24.2737 36.7343 24.7873 38.2538 25.638 39.5862L25.608 39.5847C23.8197 39.5847 22.1046 38.8743 20.8401 37.6097C19.5756 36.3452 18.8652 34.6301 18.8652 32.8418V26.478C18.8652 25.584 19.2203 24.7267 19.8524 24.0946C20.4845 23.4625 21.3419 23.1073 22.2358 23.1073H28.9802ZM18.7213 23.1073C17.9279 23.9326 17.4519 25.012 17.3776 26.1544L17.3671 26.478V32.8433C17.3671 34.1122 17.6532 35.3137 18.1656 36.3863C17.2776 36.6238 16.3469 36.654 15.4455 36.4744C14.544 36.2948 13.696 35.9103 12.9669 35.3506C12.2377 34.7909 11.6471 34.071 11.2406 33.2466C10.8342 32.4222 10.6228 31.5154 10.6227 30.5962V26.478C10.6226 25.6239 10.9468 24.8016 11.5296 24.1773C12.1125 23.553 12.9106 23.1733 13.7627 23.1148L13.9934 23.1073H18.7213ZM37.2136 23.1073C38.1076 23.1073 38.9649 23.4625 39.597 24.0946C40.2292 24.7267 40.5843 25.584 40.5843 26.478V27.3169C38.7731 25.5742 36.3564 24.6021 33.8429 24.6054L33.4789 24.6129C33.2467 24.0541 32.9124 23.5436 32.4932 23.1073H37.2136ZM35.341 14.1189C36.3343 14.1189 37.2869 14.5134 37.9893 15.2158C38.6916 15.9182 39.0862 16.8708 39.0862 17.8641C39.0862 18.8573 38.6916 19.8099 37.9893 20.5123C37.2869 21.2147 36.3343 21.6093 35.341 21.6093C34.3477 21.6093 33.3951 21.2147 32.6928 20.5123C31.9904 19.8099 31.5958 18.8573 31.5958 17.8641C31.5958 16.8708 31.9904 15.9182 32.6928 15.2158C33.3951 14.5134 34.3477 14.1189 35.341 14.1189ZM25.6035 12.6208C26.7955 12.6208 27.9386 13.0943 28.7814 13.9371C29.6242 14.78 30.0977 15.9231 30.0977 17.115C30.0977 18.307 29.6242 19.4501 28.7814 20.2929C27.9386 21.1358 26.7955 21.6093 25.6035 21.6093C24.4116 21.6093 23.2684 21.1358 22.4256 20.2929C21.5828 19.4501 21.1093 18.307 21.1093 17.115C21.1093 15.9231 21.5828 14.78 22.4256 13.9371C23.2684 13.0943 24.4116 12.6208 25.6035 12.6208ZM15.866 14.1189C16.8593 14.1189 17.8119 14.5134 18.5143 15.2158C19.2166 15.9182 19.6112 16.8708 19.6112 17.8641C19.6112 18.8573 19.2166 19.8099 18.5143 20.5123C17.8119 21.2147 16.8593 21.6093 15.866 21.6093C14.8727 21.6093 13.9201 21.2147 13.2178 20.5123C12.5154 19.8099 12.1208 18.8573 12.1208 17.8641C12.1208 16.8708 12.5154 15.9182 13.2178 15.2158C13.9201 14.5134 14.8727 14.1189 15.866 14.1189Z" fill="#FF6700"/>
</svg>
