<svg width="138" height="30" viewBox="0 0 138 30" fill="none" xmlns="http://www.w3.org/2000/svg">
<path d="M39.7234 4.11478C38.9867 0.143914 36.949 -3.43596 33.9595 -6.01119C30.9701 -8.58641 27.2151 -9.99659 23.3383 -10V-6.52174C26.4397 -6.5174 29.4433 -5.38869 31.835 -3.32877C34.2267 -1.26886 35.8579 1.5942 36.4494 4.77043L36.8811 7.1113L39.1299 7.53739C41.3817 7.96263 43.3999 9.2507 44.788 11.1487C46.1762 13.0467 46.8341 15.4176 46.6326 17.7957C46.431 20.1738 45.3847 22.3875 43.6989 24.002C42.0131 25.6165 39.8097 26.5152 37.5212 26.5217H23.3383V30H37.5212C40.6421 29.9929 43.6476 28.7687 45.9475 26.5679C48.2474 24.3671 49.6754 21.3487 49.9511 18.1056C50.2268 14.8625 49.3302 11.6291 47.4375 9.04034C45.5447 6.45163 42.7926 4.69475 39.7217 4.11478H39.7234ZM10.0021 23.0435H20.0042V26.5217H10.0021V23.0435ZM3.33404 23.0435H6.66807V26.5217H3.33404V23.0435ZM6.66807 16.087H20.0042V19.5652H6.66807V16.087ZM0 16.087H3.33404V19.5652H0V16.087ZM10.0021 9.13043H20.0042V12.6087H10.0021V9.13043ZM3.33404 9.13043H6.66807V12.6087H3.33404V9.13043ZM13.3361 2.17391H20.0042V5.65217H13.3361V2.17391ZM6.66807 2.17391H10.0021V5.65217H6.66807V2.17391ZM16.6702 -4.78261H20.0042V-1.30435H16.6702V-4.78261Z" fill="#FF6700"/>
<path d="M40.0084 13.4401C40.9613 12.8769 42.6541 12.122 43.161 13.0327C43.6678 13.9434 43.0191 16.1242 42.3703 17.8258" stroke="#003777" stroke-linecap="round" stroke-linejoin="round"/>
<path d="M24.3842 16.3296C23.366 15.9091 21.7402 15.0078 22.1018 14.0246C22.4634 13.0415 24.498 12.1998 26.175 11.6589" stroke="#003777" stroke-linecap="round" stroke-linejoin="round"/>
<path d="M25.0053 14.3477C26.303 15.7234 30.1265 17.8248 34.1939 17.8248C36.9499 17.8662 39.6199 16.7867 41.6755 14.8" stroke="#003777" stroke-linecap="round" stroke-linejoin="round"/>
<path d="M61.32 5.13C60.9 4.9 60.47 4.71 60.03 4.56C59.6 4.41 59.195 4.335 58.815 4.335C58.345 4.335 57.975 4.43 57.705 4.62C57.435 4.81 57.3 5.095 57.3 5.475C57.3 5.735 57.4 5.97 57.6 6.18C57.81 6.38 58.075 6.56 58.395 6.72C58.725 6.88 59.065 7.025 59.415 7.155C59.735 7.275 60.05 7.42 60.36 7.59C60.68 7.75 60.965 7.955 61.215 8.205C61.465 8.445 61.665 8.75 61.815 9.12C61.965 9.48 62.04 9.925 62.04 10.455C62.04 11.015 61.895 11.535 61.605 12.015C61.315 12.495 60.89 12.885 60.33 13.185C59.77 13.475 59.08 13.62 58.26 13.62C57.84 13.62 57.41 13.58 56.97 13.5C56.54 13.41 56.115 13.28 55.695 13.11C55.275 12.93 54.87 12.705 54.48 12.435L55.44 10.74C55.7 10.93 55.98 11.1 56.28 11.25C56.59 11.39 56.9 11.5 57.21 11.58C57.52 11.66 57.805 11.7 58.065 11.7C58.325 11.7 58.585 11.665 58.845 11.595C59.115 11.515 59.335 11.385 59.505 11.205C59.685 11.025 59.775 10.775 59.775 10.455C59.775 10.235 59.7 10.035 59.55 9.855C59.41 9.675 59.215 9.51 58.965 9.36C58.725 9.21 58.46 9.08 58.17 8.97C57.83 8.84 57.48 8.69 57.12 8.52C56.76 8.35 56.42 8.145 56.1 7.905C55.79 7.655 55.535 7.35 55.335 6.99C55.145 6.62 55.05 6.17 55.05 5.64C55.05 5 55.19 4.445 55.47 3.975C55.76 3.505 56.165 3.135 56.685 2.865C57.205 2.585 57.805 2.43 58.485 2.4C59.375 2.4 60.095 2.505 60.645 2.715C61.205 2.925 61.705 3.175 62.145 3.465L61.32 5.13ZM66.3751 6.39L66.3151 6.945L66.6451 6.525L70.2451 2.46H73.0651L68.5051 7.41L73.0801 13.5H70.3201L66.9151 8.79L66.3751 9.33V13.5H64.1701V2.46H66.3751V6.39ZM77.5966 10.065L73.5316 2.46H76.2166L79.0666 8.19L78.4216 8.235L81.2266 2.46H83.9116L79.7716 10.065V13.5H77.5966V10.065ZM84.8068 2.46H92.2468V4.56H89.5618V13.5H87.3868V4.56H84.8068V2.46ZM92.2073 13.5L97.1873 2.025H97.3073L102.287 13.5H99.7673L96.5873 5.43L98.1623 4.35L94.3523 13.5H92.2073ZM95.6123 9.51H98.9273L99.6923 11.34H94.9373L95.6123 9.51ZM103.897 2.46H106.072V13.5H103.897V2.46ZM108.921 2.46H111.096V11.4H116.286V13.5H108.921V2.46ZM118.53 2.46H126.06V4.56H120.705V6.915H125.445V9.015H120.705V11.4H126.27V13.5H118.53V2.46ZM131.866 2.46C132.556 2.46 133.171 2.55 133.711 2.73C134.251 2.9 134.701 3.15 135.061 3.48C135.431 3.8 135.711 4.19 135.901 4.65C136.091 5.1 136.186 5.61 136.186 6.18C136.186 6.63 136.116 7.08 135.976 7.53C135.846 7.98 135.626 8.39 135.316 8.76C135.016 9.13 134.616 9.43 134.116 9.66C133.616 9.88 132.996 9.99 132.256 9.99H130.696V13.5H128.521V2.46H131.866ZM132.241 7.89C132.571 7.89 132.846 7.835 133.066 7.725C133.286 7.615 133.456 7.475 133.576 7.305C133.706 7.135 133.796 6.96 133.846 6.78C133.906 6.59 133.936 6.415 133.936 6.255C133.936 6.135 133.916 5.985 133.876 5.805C133.846 5.615 133.776 5.425 133.666 5.235C133.556 5.045 133.386 4.885 133.156 4.755C132.936 4.625 132.636 4.56 132.256 4.56H130.696V7.89H132.241ZM134.281 9.24L137.011 13.5H134.476L131.686 9.3L134.281 9.24Z" fill="#003777"/>
</svg>
