<svg width="138" height="42" viewBox="0 0 138 42" fill="none" xmlns="http://www.w3.org/2000/svg">
<path d="M39.7234 16.1148C38.9867 12.1439 36.949 8.56404 33.9595 5.98881C30.9701 3.41359 27.2151 2.00341 23.3383 2V5.47826C26.4397 5.4826 29.4433 6.61131 31.835 8.67123C34.2267 10.7311 35.8579 13.5942 36.4494 16.7704L36.8811 19.1113L39.1299 19.5374C41.3817 19.9626 43.3999 21.2507 44.788 23.1487C46.1762 25.0467 46.8341 27.4176 46.6326 29.7957C46.431 32.1738 45.3847 34.3875 43.6989 36.002C42.0131 37.6165 39.8097 38.5152 37.5212 38.5217H23.3383V42H37.5212C40.6421 41.9929 43.6476 40.7687 45.9475 38.5679C48.2474 36.3671 49.6754 33.3487 49.9511 30.1056C50.2268 26.8625 49.3302 23.6291 47.4375 21.0403C45.5447 18.4516 42.7926 16.6948 39.7217 16.1148H39.7234ZM10.0021 35.0435H20.0042V38.5217H10.0021V35.0435ZM3.33404 35.0435H6.66807V38.5217H3.33404V35.0435ZM6.66807 28.087H20.0042V31.5652H6.66807V28.087ZM0 28.087H3.33404V31.5652H0V28.087ZM10.0021 21.1304H20.0042V24.6087H10.0021V21.1304ZM3.33404 21.1304H6.66807V24.6087H3.33404V21.1304ZM13.3361 14.1739H20.0042V17.6522H13.3361V14.1739ZM6.66807 14.1739H10.0021V17.6522H6.66807V14.1739ZM16.6702 7.21739H20.0042V10.6957H16.6702V7.21739Z" fill="#FF6700"/>
<path d="M40.0084 25.4401C40.9613 24.8769 42.6541 24.122 43.161 25.0327C43.6678 25.9434 43.0191 28.1242 42.3703 29.8258" stroke="#003777" stroke-linecap="round" stroke-linejoin="round"/>
<path d="M24.3842 28.3296C23.366 27.9091 21.7402 27.0078 22.1018 26.0246C22.4634 25.0415 24.498 24.1998 26.175 23.6589" stroke="#003777" stroke-linecap="round" stroke-linejoin="round"/>
<path d="M25.0053 26.3477C26.303 27.7234 30.1265 29.8248 34.1939 29.8248C36.9499 29.8662 39.6199 28.7867 41.6755 26.8" stroke="#003777" stroke-linecap="round" stroke-linejoin="round"/>
<path d="M57.4919 17.13C57.0719 16.9 56.6419 16.71 56.2019 16.56C55.7719 16.41 55.3669 16.335 54.9869 16.335C54.5169 16.335 54.1469 16.43 53.8769 16.62C53.6069 16.81 53.4719 17.095 53.4719 17.475C53.4719 17.735 53.5719 17.97 53.7719 18.18C53.9819 18.38 54.2469 18.56 54.5669 18.72C54.8969 18.88 55.2369 19.025 55.5869 19.155C55.9069 19.275 56.2219 19.42 56.5319 19.59C56.8519 19.75 57.1369 19.955 57.3869 20.205C57.6369 20.445 57.8369 20.75 57.9869 21.12C58.1369 21.48 58.2119 21.925 58.2119 22.455C58.2119 23.015 58.0669 23.535 57.7769 24.015C57.4869 24.495 57.0619 24.885 56.5019 25.185C55.9419 25.475 55.2519 25.62 54.4319 25.62C54.0119 25.62 53.5819 25.58 53.1419 25.5C52.7119 25.41 52.2869 25.28 51.8669 25.11C51.4469 24.93 51.0419 24.705 50.6519 24.435L51.6119 22.74C51.8719 22.93 52.1519 23.1 52.4519 23.25C52.7619 23.39 53.0719 23.5 53.3819 23.58C53.6919 23.66 53.9769 23.7 54.2369 23.7C54.4969 23.7 54.7569 23.665 55.0169 23.595C55.2869 23.515 55.5069 23.385 55.6769 23.205C55.8569 23.025 55.9469 22.775 55.9469 22.455C55.9469 22.235 55.8719 22.035 55.7219 21.855C55.5819 21.675 55.3869 21.51 55.1369 21.36C54.8969 21.21 54.6319 21.08 54.3419 20.97C54.0019 20.84 53.6519 20.69 53.2919 20.52C52.9319 20.35 52.5919 20.145 52.2719 19.905C51.9619 19.655 51.7069 19.35 51.5069 18.99C51.3169 18.62 51.2219 18.17 51.2219 17.64C51.2219 17 51.3619 16.445 51.6419 15.975C51.9319 15.505 52.3369 15.135 52.8569 14.865C53.3769 14.585 53.9769 14.43 54.6569 14.4C55.5469 14.4 56.2669 14.505 56.8169 14.715C57.3769 14.925 57.8769 15.175 58.3169 15.465L57.4919 17.13ZM62.547 18.39L62.487 18.945L62.817 18.525L66.417 14.46H69.237L64.677 19.41L69.252 25.5H66.492L63.087 20.79L62.547 21.33V25.5H60.342V14.46H62.547V18.39ZM73.7685 22.065L69.7035 14.46H72.3885L75.2385 20.19L74.5935 20.235L77.3985 14.46H80.0835L75.9435 22.065V25.5H73.7685V22.065ZM81.7287 14.46H89.2587V16.56H83.9037V18.915H88.6437V21.015H83.9037V23.4H89.4687V25.5H81.7287V14.46ZM97.6139 17.13C97.1939 16.9 96.7639 16.71 96.3239 16.56C95.8939 16.41 95.4889 16.335 95.1089 16.335C94.6389 16.335 94.2689 16.43 93.9989 16.62C93.7289 16.81 93.5939 17.095 93.5939 17.475C93.5939 17.735 93.6939 17.97 93.8939 18.18C94.1039 18.38 94.3689 18.56 94.6889 18.72C95.0189 18.88 95.3589 19.025 95.7089 19.155C96.0289 19.275 96.3439 19.42 96.6539 19.59C96.9739 19.75 97.2589 19.955 97.5089 20.205C97.7589 20.445 97.9589 20.75 98.1089 21.12C98.2589 21.48 98.3339 21.925 98.3339 22.455C98.3339 23.015 98.1889 23.535 97.8989 24.015C97.6089 24.495 97.1839 24.885 96.6239 25.185C96.0639 25.475 95.3739 25.62 94.5539 25.62C94.1339 25.62 93.7039 25.58 93.2639 25.5C92.8339 25.41 92.4089 25.28 91.9889 25.11C91.5689 24.93 91.1639 24.705 90.7739 24.435L91.7339 22.74C91.9939 22.93 92.2739 23.1 92.5739 23.25C92.8839 23.39 93.1939 23.5 93.5039 23.58C93.8139 23.66 94.0989 23.7 94.3589 23.7C94.6189 23.7 94.8789 23.665 95.1389 23.595C95.4089 23.515 95.6289 23.385 95.7989 23.205C95.9789 23.025 96.0689 22.775 96.0689 22.455C96.0689 22.235 95.9939 22.035 95.8439 21.855C95.7039 21.675 95.5089 21.51 95.2589 21.36C95.0189 21.21 94.7539 21.08 94.4639 20.97C94.1239 20.84 93.7739 20.69 93.4139 20.52C93.0539 20.35 92.7139 20.145 92.3939 19.905C92.0839 19.655 91.8289 19.35 91.6289 18.99C91.4389 18.62 91.3439 18.17 91.3439 17.64C91.3439 17 91.4839 16.445 91.7639 15.975C92.0539 15.505 92.4589 15.135 92.9789 14.865C93.4989 14.585 94.0989 14.43 94.7789 14.4C95.6689 14.4 96.3889 14.505 96.9389 14.715C97.4989 14.925 97.9989 15.175 98.4389 15.465L97.6139 17.13ZM99.2191 25.5L104.199 14.025H104.319L109.299 25.5H106.779L103.599 17.43L105.174 16.35L101.364 25.5H99.2191ZM102.624 21.51H105.939L106.704 23.34H101.949L102.624 21.51ZM110.908 14.46H113.083V23.4H118.273V25.5H110.908V14.46ZM120.518 14.46H128.048V16.56H122.693V18.915H127.433V21.015H122.693V23.4H128.258V25.5H120.518V14.46ZM136.403 17.13C135.983 16.9 135.553 16.71 135.113 16.56C134.683 16.41 134.278 16.335 133.898 16.335C133.428 16.335 133.058 16.43 132.788 16.62C132.518 16.81 132.383 17.095 132.383 17.475C132.383 17.735 132.483 17.97 132.683 18.18C132.893 18.38 133.158 18.56 133.478 18.72C133.808 18.88 134.148 19.025 134.498 19.155C134.818 19.275 135.133 19.42 135.443 19.59C135.763 19.75 136.048 19.955 136.298 20.205C136.548 20.445 136.748 20.75 136.898 21.12C137.048 21.48 137.123 21.925 137.123 22.455C137.123 23.015 136.978 23.535 136.688 24.015C136.398 24.495 135.973 24.885 135.413 25.185C134.853 25.475 134.163 25.62 133.343 25.62C132.923 25.62 132.493 25.58 132.053 25.5C131.623 25.41 131.198 25.28 130.778 25.11C130.358 24.93 129.953 24.705 129.563 24.435L130.523 22.74C130.783 22.93 131.063 23.1 131.363 23.25C131.673 23.39 131.983 23.5 132.293 23.58C132.603 23.66 132.888 23.7 133.148 23.7C133.408 23.7 133.668 23.665 133.928 23.595C134.198 23.515 134.418 23.385 134.588 23.205C134.768 23.025 134.858 22.775 134.858 22.455C134.858 22.235 134.783 22.035 134.633 21.855C134.493 21.675 134.298 21.51 134.048 21.36C133.808 21.21 133.543 21.08 133.253 20.97C132.913 20.84 132.563 20.69 132.203 20.52C131.843 20.35 131.503 20.145 131.183 19.905C130.873 19.655 130.618 19.35 130.418 18.99C130.228 18.62 130.133 18.17 130.133 17.64C130.133 17 130.273 16.445 130.553 15.975C130.843 15.505 131.248 15.135 131.768 14.865C132.288 14.585 132.888 14.43 133.568 14.4C134.458 14.4 135.178 14.505 135.728 14.715C136.288 14.925 136.788 15.175 137.228 15.465L136.403 17.13Z" fill="#003777"/>
</svg>
